<?xml version="1.0" encoding="utf-8"?>
<!-- Generator: Adobe Illustrator 21.1.0, SVG Export Plug-In . SVG Version: 6.00 Build 0)  -->
<svg version="1.1" id="icons" xmlns="http://www.w3.org/2000/svg" xmlns:xlink="http://www.w3.org/1999/xlink" x="0px" y="0px"
	 width="1400px" height="980px" viewBox="0 0 1400 980" enable-background="new 0 0 1400 980" xml:space="preserve">
<g id="mobile_marketing_1_">
	<rect id="background_5_" x="933.3" y="490" fill="#36D0FF" width="466.7" height="490"/>
	<g id="mobile_marketing">
		<g id="smartphone_1_">
			<path fill="#E5E5E5" d="M1176.6,676.4c-4.4,5.7-12.6,6.9-18.5,2.6l-22.4-16.8c-5.8-4.4-7-12.7-2.6-18.5
				c4.4-5.7,12.6-6.9,18.5-2.6l22.4,16.8C1179.8,662.2,1181,670.5,1176.6,676.4z"/>
			<path fill="#E5E5E5" d="M1176.6,710.5c-4.4,5.7-12.6,6.9-18.5,2.6l-22.4-16.8c-5.8-4.4-7-12.7-2.6-18.5
				c4.4-5.7,12.6-6.9,18.5-2.6L1174,692C1179.8,696.3,1181,704.6,1176.6,710.5z"/>
			<path fill="#E5E5E5" d="M1176.6,744.6c-4.4,5.7-12.6,6.9-18.5,2.6l-22.4-16.8c-5.8-4.4-7-12.7-2.6-18.5
				c4.4-5.7,12.6-6.9,18.5-2.6l22.4,16.8C1179.8,730.5,1181,738.8,1176.6,744.6z"/>
			<path fill="#EAAD82" d="M1135.5,662.2c-5.8-4.4-7-12.7-2.6-18.5c4.4-5.7,12.6-6.9,18.5-2.6l13.9,10.5v30.2
				c-2.8-0.1-5.5-1-7.7-2.6L1135.5,662.2z"/>
			<path fill="#EAAD82" d="M1135.5,696.4c-5.8-4.4-7-12.7-2.6-18.5c4.4-5.7,12.6-6.9,18.5-2.6l13.9,10.5v30c-2.8-0.1-5.5-1-7.7-2.6
				L1135.5,696.4z"/>
			<path fill="#EAAD82" d="M1135.5,730.5c-5.8-4.4-7-12.7-2.6-18.5c4.4-5.7,12.6-6.9,18.5-2.6l13.9,10.5v30c-2.8-0.1-5.5-1-7.7-2.6
				L1135.5,730.5z"/>
			<path fill="#E5E5E5" d="M1152.8,734.8V750c-1.3,20.1-17.9,35.9-38,36v41.7l-66.9-9.7v-83.3L1152.8,734.8z"/>
			<g id="mobile">
				<path fill="#43459C" d="M1152.8,582.3h-72.3c-6.8,0.1-12.2,5.6-12.3,12.4v152.7c0,6.9,5.6,12.4,12.4,12.4h72.2
					c6.9,0.1,12.5-5.4,12.6-12.3v0V594.8c0-6.9-5.5-12.5-12.4-12.5C1152.9,582.3,1152.8,582.3,1152.8,582.3z"/>
				<rect x="1076.5" y="609.8" fill="#585AC7" width="80.1" height="122.5"/>
				<circle fill="#585AC7" cx="1116.6" cy="595.7" r="3.1"/>
				<path fill="#585AC7" d="M1108.9,742.5h15.5c1.9,0,3.4,1.5,3.4,3.4v1c0,1.9-1.5,3.4-3.4,3.4h-15.5c-1.9,0-3.4-1.5-3.4-3.4l0,0v-1
					C1105.5,744,1107,742.5,1108.9,742.5L1108.9,742.5L1108.9,742.5z"/>
			</g>
			<path fill="#F6F6F6" d="M1138.2,697.1v6.3c0,12.8-10.4,23.1-23.1,23.1h-31.6l0,0v-17.7c0-6.5,5.2-11.7,11.7-11.7L1138.2,697.1
				L1138.2,697.1z"/>
			<path fill="#F6F6F6" d="M1068.2,643.3v83.3l18.1-24.9l18.1,6.1v42.4c0,39.8-43.7,36-56.5,36v-99.7
				C1047.9,686.4,1048.3,648.2,1068.2,643.3z"/>
			<rect x="1047.8" y="794.5" fill="#FFFFFF" width="66.9" height="16.3"/>
			<rect x="1040.4" y="809.6" fill="#FF63CE" width="81.7" height="27.3"/>
			<path fill="#FCD529" d="M1092.6,654.7l6.2,26.1c0.2,0.8,0.9,1.4,1.8,1.4h33.2c0.9,0,1.6-0.6,1.8-1.4l6.2-26.1H1092.6z"/>
			<path fill="#FCD529" d="M1144.9,643.7h-10.1l-10.6-15.7c-0.7-0.8-1.8-0.8-2.6-0.2c-0.6,0.6-0.8,1.5-0.4,2.2l9.3,13.9H1104
				l9.3-13.9c0.6-0.9,0.3-2-0.5-2.6c-0.9-0.6-2-0.3-2.6,0.5l-10.6,15.7h-10.1c-1,0-1.9,0.8-1.9,1.9l0,0v3.8c0,1,0.8,1.9,1.9,1.9l0,0
				h55.5c1,0,1.8-0.8,1.8-1.9v-3.7c0-1-0.8-1.9-1.9-1.9l0,0"/>
		</g>
		<g id="smartwatch" transform="translate(272, 272)">
			<path fill="#FF63CE" d="M943.9,458.8l3.4-16.9c0.5-2.5,2.7-4.3,5.2-4.3h34c2.6,0,4.7,1.8,5.2,4.3l3.4,16.9"/>
			<path fill="#FF63CE" d="M995.3,543.6l-3.4,16.9c-0.5,2.5-2.7,4.3-5.2,4.3h-34c-2.6,0-4.7-1.8-5.2-4.3l-3.4-16.9"/>
			<polyline fill="#FFFFFF" points="1012.4,492.7 1020.9,492.7 1020.9,509.7 1012.4,509.7 			"/>
			<path fill="#43459C" d="M1003.8,543.6h-68.5c-4.7,0-8.6-3.8-8.6-8.5v-67.9c0-4.7,3.9-8.5,8.6-8.5h68.5c4.7,0,8.6,3.8,8.6,8.5
				v67.9C1012.4,539.8,1008.5,543.6,1003.8,543.6z"/>
			<path fill="#585AC7" d="M935.3,538.3c-1.7,0-3.2-1.5-3.2-3.2v-67.9c0-1.7,1.5-3.2,3.2-3.2h68.5c1.7,0,3.2,1.5,3.2,3.2v67.9
				c0,1.7-1.5,3.2-3.2,3.2H935.3z"/>
			<ellipse fill="#FCD529" cx="955.3" cy="520.6" rx="5.4" ry="5.3"/>
			<ellipse fill="#FCD529" cx="984" cy="520.6" rx="5.4" ry="5.3"/>
			<g>
				<g>
					<g>
						<path fill="#5990F7" d="M949.7,509.7c-1.5,0-2.7-1.2-2.7-2.7v-27.8h-5.1c-1.5,0-2.7-1.2-2.7-2.7s1.2-2.7,2.7-2.7h7.8
							c1.5,0,2.7,1.2,2.7,2.7v30.4C952.4,508.5,951.2,509.7,949.7,509.7z"/>
					</g>
					<g>
						<path fill="#5990F7" d="M988.8,510.3h-39.1c-1.5,0-2.7-1.2-2.7-2.7s1.2-2.7,2.7-2.7h37l4.5-17.9h-41.5c-1.5,0-2.7-1.2-2.7-2.7
							s1.2-2.7,2.7-2.7h44.9c0.8,0,1.6,0.4,2.1,1c0.5,0.6,0.7,1.5,0.5,2.3l-5.9,23.2C991.1,509.4,990,510.3,988.8,510.3z"/>
					</g>
					<g>
						<path fill="#5990F7" d="M989.2,498.6h-37.7c-1.5,0-2.7-1.2-2.7-2.7s1.2-2.7,2.7-2.7h37.7c1.5,0,2.7,1.2,2.7,2.7
							S990.7,498.6,989.2,498.6z"/>
					</g>
				</g>
			</g>
		</g>
	</g>
	<g id="title_5_">
		<path fill="#FFFFFF" d="M1058.2,905.9v-10.8l-4.3,9.2h-2.4l-4.3-9.2v10.8h-3.3v-16h4.1l4.7,9.8l4.6-9.8h4v16H1058.2z"/>
		<path fill="#FFFFFF" d="M1081.7,897.9c0,4.6-3.7,8.2-8.6,8.2s-8.6-3.5-8.6-8.2c0-4.7,3.7-8.1,8.6-8.1S1081.7,893.2,1081.7,897.9z
			 M1068.2,897.9c0,2.8,2.3,5,4.9,5s4.9-2.2,4.9-5c0-2.8-2.2-5-4.9-5C1070.4,892.9,1068.2,895.1,1068.2,897.9z"/>
		<path fill="#FFFFFF" d="M1092,889.9c3.5,0,5.7,1.5,5.7,4c0,1.7-1.1,3.1-2.8,3.5c2.1,0.4,3.3,1.9,3.3,4.1c0,2.7-2.3,4.4-6,4.4h-7.6
			v-16H1092z M1088.3,896.3h3.6c1.4,0,2.2-0.7,2.2-1.8c0-1.1-0.8-1.7-2.2-1.7h-3.6V896.3z M1088.3,903h3.6c1.7,0,2.7-0.7,2.7-1.9
			c0-1.2-1-1.9-2.7-1.9h-3.6V903z"/>
		<path fill="#FFFFFF" d="M1101.5,905.9v-16h3.6v16H1101.5z"/>
		<path fill="#FFFFFF" d="M1119.8,902.7v3.2h-10.5v-16h3.6v12.9H1119.8z"/>
		<path fill="#FFFFFF" d="M1126.1,892.9v3.5h7.7v3h-7.7v3.6h8.8v3h-12.5v-16h12.2v3H1126.1z"/>
		<path fill="#FFFFFF" d="M1158.6,905.9v-10.8l-4.3,9.2h-2.4l-4.3-9.2v10.8h-3.3v-16h4.1l4.7,9.8l4.6-9.8h4v16H1158.6z"/>
		<path fill="#FFFFFF" d="M1169.2,902.8l-1.3,3.1h-3.7l7-16h3.7l6.8,16h-3.9l-1.3-3.1H1169.2z M1172.9,893.7l-2.5,6.2h5.1
			L1172.9,893.7z"/>
		<path fill="#FFFFFF" d="M1191.3,901.3h-0.3h-3.3v4.6h-3.6v-16h7c4.2,0,6.6,2,6.6,5.6c0,2.5-1.1,4.3-3,5.2l3.4,5.3h-4.1
			L1191.3,901.3z M1190.9,898.3c2,0,3.1-0.9,3.1-2.7c0-1.8-1.1-2.7-3.1-2.7h-3.3v5.4H1190.9z"/>
		<path fill="#FFFFFF" d="M1207,899.4l-2.3,2.6v4h-3.6v-16h3.6v7.3l6.7-7.3h4.2l-6,6.7l6.4,9.3h-4.4L1207,899.4z"/>
		<path fill="#FFFFFF" d="M1222.2,892.9v3.5h7.7v3h-7.7v3.6h8.8v3h-12.5v-16h12.2v3H1222.2z"/>
		<path fill="#FFFFFF" d="M1241.4,892.9v13h-3.6v-13h-4.9v-3.1h13.4v3.1H1241.4z"/>
		<path fill="#FFFFFF" d="M1248.8,905.9v-16h3.6v16H1248.8z"/>
		<path fill="#FFFFFF" d="M1267.8,905.9l-7.8-10.3v10.3h-3.5v-16h3.3l7.8,10.3v-10.3h3.4v16H1267.8z"/>
		<path fill="#FFFFFF" d="M1289.1,897.8v6.2c-1.7,1.2-4.3,2.1-6.5,2.1c-4.9,0-8.5-3.5-8.5-8.2c0-4.6,3.8-8.1,8.7-8.1
			c2.4,0,4.8,0.9,6.4,2.3l-2,2.6c-1.2-1.1-2.8-1.8-4.4-1.8c-2.8,0-5,2.2-5,5c0,2.8,2.2,5,5.1,5c1,0,2.1-0.3,3.1-0.9v-4.2H1289.1z"/>
	</g>
</g>
<g id="press_release_1_">
	<rect id="background_4_" x="466.7" y="490" fill="#5990F7" width="466.7" height="490"/>
	<g id="press_release">
		<g>
			<path fill="#585AC7" d="M586.7,650v175.8c0,6.1,4.9,11,11,11c6.1,0,11-4.9,11-11V650H586.7z"/>
			<path fill="#FFFFFF" d="M608.3,825.8v-235l8.6-8.6l8.5,8.6l8.6-8.6l8.5,8.6l8.6-8.6l8.5,8.6l8.6-8.6l8.6,8.6l8.5-8.6l8.6,8.6
				l8.6-8.6l8.5,8.6l8.5-8.6l8.6,8.6l8.5-8.6l8.6,8.6l8.5-8.6l8.5,8.6l8.6-8.6l8.5,8.6l8.5-8.6l8.6,8.6l8.5-8.6l8.6,8.6v235
				c0,2.8-1.1,5.6-3.2,7.8c-2.1,2.1-5,3.2-7.8,3.2h-205C603.4,836.8,608.3,831.9,608.3,825.8z"/>
		</g>
		<g>
			<g>
				<rect x="620" y="715.4" fill="#BED3FC" width="81.1" height="3.7"/>
				<rect x="620" y="727.5" fill="#BED3FC" width="81.1" height="3.7"/>
				<rect x="620" y="739.7" fill="#BED3FC" width="81.1" height="3.7"/>
				<rect x="620" y="751.9" fill="#BED3FC" width="81.1" height="3.7"/>
				<rect x="620" y="764" fill="#BED3FC" width="81.1" height="3.7"/>
				<rect x="620" y="776.2" fill="#BED3FC" width="81.1" height="3.7"/>
				<rect x="620" y="788.3" fill="#BED3FC" width="81.1" height="3.7"/>
				<rect x="620" y="666.7" fill="#FCD529" width="81.1" height="40.2"/>
			</g>
			<g>
				<rect x="709.5" y="666.7" fill="#BED3FC" width="81.1" height="3.7"/>
				<rect x="709.5" y="678.9" fill="#BED3FC" width="81.1" height="3.7"/>
				<rect x="709.5" y="691.1" fill="#BED3FC" width="81.1" height="3.7"/>
				<rect x="709.5" y="703.2" fill="#BED3FC" width="81.1" height="3.7"/>
				<rect x="709.5" y="715.4" fill="#BED3FC" width="81.1" height="3.7"/>
				<rect x="709.5" y="727.5" fill="#BED3FC" width="81.1" height="3.7"/>
				<rect x="709.5" y="739.7" fill="#BED3FC" width="81.1" height="3.7"/>
				<rect x="709.5" y="751.9" fill="#43459C" width="81.1" height="40.2"/>
				<g>
					<rect x="713.2" y="761.7" fill="#585AC7" width="7.9" height="26.8"/>
					<rect x="724.1" y="777.2" fill="#36D0FF" width="7.9" height="11.3"/>
					<rect x="735.1" y="765" fill="#FF63CE" width="7.9" height="23.5"/>
					<rect x="746.1" y="769.6" fill="#FCD529" width="7.9" height="18.9"/>
					<rect x="757.1" y="758.2" fill="#FFFFFF" width="7.9" height="30.3"/>
					<rect x="768" y="783.3" fill="#36D0FF" width="7.9" height="5.2"/>
					<rect x="779" y="764" fill="#FF9C00" width="7.9" height="24.4"/>
				</g>
			</g>
		</g>
		<g>
			<rect x="619.8" y="606.9" fill="#43459C" width="170.5" height="46.2"/>
			<g>
				<path fill="#36D0FF" d="M652.5,618.3c6.2,0,9.7,3,9.7,8.4c0,5.6-3.5,8.9-9.7,8.9h-4.4v6.8H642v-24.1H652.5z M648.2,630.8h4.1
					c2.7,0,4.2-1.3,4.2-3.9c0-2.5-1.5-3.8-4.2-3.8h-4.1V630.8z"/>
				<path fill="#36D0FF" d="M679.8,635.6h-0.2H675v6.8h-6.1v-24.1h10.8c6.4,0,10,3,10,8.4c0,3.7-1.5,6.3-4.4,7.7l5.1,7.9h-6.9
					L679.8,635.6z M679.6,630.8c2.6,0,4.2-1.3,4.2-3.9c0-2.5-1.5-3.8-4.2-3.8H675v7.7H679.6z"/>
				<path fill="#36D0FF" d="M703.3,623.1v4.8h11.5v4.8h-11.5v4.8h13.1v4.8h-19.2v-24.1H716v4.8H703.3z"/>
				<path fill="#36D0FF" d="M742.5,620.7l-2.3,4.8c-2.5-1.5-5.7-2.5-7.7-2.5c-1.6,0-2.6,0.6-2.6,1.8c0,4.2,12.7,1.8,12.7,10.5
					c0,4.8-4.3,7.4-9.6,7.4c-4,0-8.1-1.5-11-3.9l2.4-4.7c2.5,2.2,6.2,3.6,8.7,3.6c1.9,0,3.1-0.7,3.1-2.1c0-4.3-12.7-1.7-12.7-10.2
					c0-4.4,3.8-7.3,9.6-7.3C736.5,618,740,619.1,742.5,620.7z"/>
				<path fill="#36D0FF" d="M768.1,620.7l-2.3,4.8c-2.5-1.5-5.7-2.5-7.7-2.5c-1.6,0-2.6,0.6-2.6,1.8c0,4.2,12.7,1.8,12.7,10.5
					c0,4.8-4.3,7.4-9.6,7.4c-4,0-8.1-1.5-11-3.9l2.4-4.7c2.5,2.2,6.2,3.6,8.7,3.6c1.9,0,3.1-0.7,3.1-2.1c0-4.3-12.7-1.7-12.7-10.2
					c0-4.4,3.8-7.3,9.6-7.3C762.1,618,765.6,619.1,768.1,620.7z"/>
			</g>
		</g>
	</g>
	<g id="title_4_">
		<path fill="#FFFFFF" d="M610.2,897.5c4.1,0,6.4,2,6.4,5.6c0,3.7-2.3,5.9-6.4,5.9H607v4.6h-3.6v-16H610.2z M607,905.9h3
			c2,0,3.2-0.9,3.2-2.7c0-1.8-1.1-2.7-3.2-2.7h-3V905.9z"/>
		<path fill="#FFFFFF" d="M626.8,909h-0.3h-3.3v4.6h-3.6v-16h7c4.2,0,6.6,2,6.6,5.6c0,2.5-1.1,4.3-3,5.2l3.4,5.3h-4.1L626.8,909z
			 M626.5,905.9c2,0,3.1-0.9,3.1-2.7c0-1.8-1.1-2.7-3.1-2.7h-3.3v5.4H626.5z"/>
		<path fill="#FFFFFF" d="M640.3,900.5v3.5h7.7v3h-7.7v3.6h8.8v3h-12.5v-16h12.2v3H640.3z"/>
		<path fill="#FFFFFF" d="M664.5,899.1l-1.4,3c-1.7-1-3.7-1.6-5-1.6c-1.2,0-2,0.4-2,1.3c0,3,8.5,1.3,8.5,7.1c0,3.1-2.7,4.8-6.3,4.8
			c-2.6,0-5.3-1-7.1-2.5l1.4-3c1.6,1.5,4,2.4,5.7,2.4c1.5,0,2.4-0.5,2.4-1.5c0-3-8.5-1.3-8.5-6.9c0-2.9,2.5-4.7,6.2-4.7
			C660.7,897.4,662.9,898,664.5,899.1z"/>
		<path fill="#FFFFFF" d="M679.7,899.1l-1.4,3c-1.7-1-3.7-1.6-5-1.6c-1.2,0-2,0.4-2,1.3c0,3,8.5,1.3,8.5,7.1c0,3.1-2.7,4.8-6.3,4.8
			c-2.6,0-5.3-1-7.1-2.5l1.4-3c1.6,1.5,4,2.4,5.7,2.4c1.5,0,2.4-0.5,2.4-1.5c0-3-8.5-1.3-8.5-6.9c0-2.9,2.5-4.7,6.2-4.7
			C675.8,897.4,678.1,898,679.7,899.1z"/>
		<path fill="#FFFFFF" d="M696.3,909h-0.3h-3.3v4.6H689v-16h7c4.2,0,6.6,2,6.6,5.6c0,2.5-1.1,4.3-3,5.2l3.4,5.3h-4.1L696.3,909z
			 M695.9,905.9c2,0,3.1-0.9,3.1-2.7c0-1.8-1.1-2.7-3.1-2.7h-3.3v5.4H695.9z"/>
		<path fill="#FFFFFF" d="M709.7,900.5v3.5h7.7v3h-7.7v3.6h8.8v3h-12.5v-16h12.2v3H709.7z"/>
		<path fill="#FFFFFF" d="M732.5,910.4v3.2H722v-16h3.6v12.9H732.5z"/>
		<path fill="#FFFFFF" d="M738.8,900.5v3.5h7.7v3h-7.7v3.6h8.8v3h-12.5v-16h12.2v3H738.8z"/>
		<path fill="#FFFFFF" d="M754.3,910.4l-1.3,3.1h-3.7l7-16h3.7l6.8,16h-3.9l-1.3-3.1H754.3z M758,901.3l-2.5,6.2h5.1L758,901.3z"/>
		<path fill="#FFFFFF" d="M780.9,899.1l-1.4,3c-1.7-1-3.7-1.6-5-1.6c-1.2,0-2,0.4-2,1.3c0,3,8.5,1.3,8.5,7.1c0,3.1-2.7,4.8-6.3,4.8
			c-2.6,0-5.3-1-7.1-2.5l1.4-3c1.6,1.5,4,2.4,5.7,2.4c1.5,0,2.4-0.5,2.4-1.5c0-3-8.5-1.3-8.5-6.9c0-2.9,2.5-4.7,6.2-4.7
			C777.1,897.4,779.3,898,780.9,899.1z"/>
		<path fill="#FFFFFF" d="M787.8,900.5v3.5h7.7v3h-7.7v3.6h8.8v3h-12.5v-16h12.2v3H787.8z"/>
	</g>
</g>
<g id="email_marketing">
	<rect id="background_3_" y="490" fill="#FCD529" width="466.7" height="490"/>
	<g id="email_marketing_1_">
		<polygon fill="#5990F7" points="351.2,678.1 234.6,596.3 114.4,678.1 114.4,832.5 351.2,832.5 		"/>
		<g>
			<rect x="136.7" y="582.3" fill="#FFFFFF" width="193.3" height="186.9"/>
			<g>
				<g>
					<g>
						<rect x="237.5" y="703.6" fill="#BED3FC" width="81.7" height="3.8"/>
						<rect x="237.5" y="715.9" fill="#BED3FC" width="81.7" height="3.8"/>
						<rect x="237.5" y="728.1" fill="#BED3FC" width="81.7" height="3.8"/>
						<rect x="237.5" y="740.4" fill="#BED3FC" width="81.7" height="3.8"/>
						<rect x="237.5" y="752.6" fill="#BED3FC" width="81.7" height="3.8"/>
						<rect x="237.5" y="764.8" fill="#BED3FC" width="81.7" height="3.8"/>
						<rect x="237.5" y="777.1" fill="#BED3FC" width="81.7" height="3.8"/>
					</g>
					<rect x="237.5" y="654.6" fill="#FF63CE" width="81.7" height="40.5"/>
					<g>
						<rect x="147.4" y="703.6" fill="#BED3FC" width="81.7" height="3.8"/>
						<rect x="147.4" y="715.9" fill="#BED3FC" width="81.7" height="3.8"/>
						<rect x="147.4" y="728.1" fill="#BED3FC" width="81.7" height="3.8"/>
						<rect x="147.4" y="740.4" fill="#BED3FC" width="81.7" height="3.8"/>
						<rect x="147.4" y="752.6" fill="#BED3FC" width="81.7" height="3.8"/>
						<rect x="147.4" y="764.9" fill="#BED3FC" width="81.7" height="3.8"/>
						<rect x="147.4" y="777.1" fill="#BED3FC" width="81.7" height="3.8"/>
					</g>
					<g>
						<rect x="147.4" y="654.6" fill="#43459C" width="81.7" height="40.5"/>
						<g>
							<rect x="217.4" y="664.6" fill="#585AC7" width="7.9" height="27"/>
							<rect x="206.4" y="680.1" fill="#36D0FF" width="7.9" height="11.4"/>
							<rect x="195.3" y="667.9" fill="#FF63CE" width="7.9" height="23.6"/>
							<rect x="184.3" y="672.5" fill="#FCD529" width="7.9" height="19"/>
							<rect x="173.2" y="661" fill="#FFFFFF" width="7.9" height="30.5"/>
							<rect x="162.2" y="686.3" fill="#36D0FF" width="7.9" height="5.2"/>
							<rect x="151.1" y="666.9" fill="#FF9C00" width="7.9" height="24.6"/>
						</g>
					</g>
				</g>
				<g>
					<rect x="147.4" y="594.3" fill="#FF9C00" width="171.8" height="46.6"/>
					
						<text transform="matrix(1 0 0 1 171.2607 630.0859)" fill="#FCD529" font-family="'Montserrat-Bold'" font-size="34.6135px" letter-spacing="3">NEWS</text>
				</g>
			</g>
		</g>
		<g>
			<polygon fill="#36D0FF" points="233.3,753.9 114.8,836.4 114.8,836.8 351.1,836.8 351.1,835.9 			"/>
			<polygon fill="#82E1FF" points="233.3,756.6 114.1,678.1 114.1,836.8 114.8,836.4 233.3,758.3 351.1,835.9 352.5,836.8 
				352.5,678.1 			"/>
		</g>
	</g>
	<g id="title_3_">
		<path fill="#585AC7" d="M123.3,892.9v3.5h7.7v3h-7.7v3.6h8.8v3h-12.5v-16h12.2v3H123.3z"/>
		<path fill="#585AC7" d="M149.7,905.9v-10.8l-4.3,9.2h-2.4l-4.3-9.2v10.8h-3.3v-16h4.1l4.7,9.8l4.6-9.8h4v16H149.7z"/>
		<path fill="#585AC7" d="M160.3,902.8l-1.3,3.1h-3.7l7-16h3.7l6.8,16H169l-1.3-3.1H160.3z M164,893.7l-2.5,6.2h5.1L164,893.7z"/>
		<path fill="#585AC7" d="M175.1,905.9v-16h3.6v16H175.1z"/>
		<path fill="#585AC7" d="M193.3,902.7v3.2h-10.5v-16h3.6v12.9H193.3z"/>
		<path fill="#585AC7" d="M216.3,905.9v-10.8l-4.3,9.2h-2.4l-4.3-9.2v10.8h-3.3v-16h4.1l4.7,9.8l4.6-9.8h4v16H216.3z"/>
		<path fill="#585AC7" d="M226.8,902.8l-1.3,3.1h-3.7l7-16h3.7l6.8,16h-3.9l-1.3-3.1H226.8z M230.6,893.7l-2.5,6.2h5.1L230.6,893.7z
			"/>
		<path fill="#585AC7" d="M248.9,901.3h-0.3h-3.3v4.6h-3.6v-16h7c4.2,0,6.6,2,6.6,5.6c0,2.5-1.1,4.3-3,5.2l3.4,5.3h-4.1L248.9,901.3
			z M248.6,898.3c2,0,3.1-0.9,3.1-2.7c0-1.8-1.1-2.7-3.1-2.7h-3.3v5.4H248.6z"/>
		<path fill="#585AC7" d="M264.7,899.4l-2.3,2.6v4h-3.6v-16h3.6v7.3l6.7-7.3h4.2l-6,6.7l6.4,9.3h-4.4L264.7,899.4z"/>
		<path fill="#585AC7" d="M279.9,892.9v3.5h7.7v3h-7.7v3.6h8.8v3h-12.5v-16h12.2v3H279.9z"/>
		<path fill="#585AC7" d="M299,892.9v13h-3.6v-13h-4.9v-3.1h13.4v3.1H299z"/>
		<path fill="#585AC7" d="M306.5,905.9v-16h3.6v16H306.5z"/>
		<path fill="#585AC7" d="M325.4,905.9l-7.8-10.3v10.3h-3.5v-16h3.3l7.8,10.3v-10.3h3.4v16H325.4z"/>
		<path fill="#585AC7" d="M346.7,897.8v6.2c-1.7,1.2-4.3,2.1-6.5,2.1c-4.9,0-8.5-3.5-8.5-8.2c0-4.6,3.8-8.1,8.7-8.1
			c2.4,0,4.8,0.9,6.4,2.3l-2,2.6c-1.2-1.1-2.8-1.8-4.4-1.8c-2.8,0-5,2.2-5,5c0,2.8,2.2,5,5.1,5c1,0,2.1-0.3,3.1-0.9v-4.2H346.7z"/>
	</g>
</g>
<g id="video_marketing_1_">
	<rect id="background_2_" x="933.3" fill="#585AC7" width="466.7" height="490"/>
	<g id="video_marketing">
		<g id="browser_12_">
			
				<rect id="background_14_" x="1039.4" y="92.3" fill-rule="evenodd" clip-rule="evenodd" fill="#FFFFFF" width="254.5" height="254.5"/>
			<rect id="bar_12_" x="1039.4" y="92.3" fill-rule="evenodd" clip-rule="evenodd" fill="#43459C" width="254.5" height="53"/>
			<g id="field_13_">
				<rect x="1066.1" y="113.5" fill-rule="evenodd" clip-rule="evenodd" fill="#FFFFFF" width="25.2" height="10.6"/>
				<rect x="1108.3" y="113.5" fill-rule="evenodd" clip-rule="evenodd" fill="#FFFFFF" width="159.3" height="10.6"/>
			</g>
		</g>
		<g id="video-player_2_">
			<rect id="video" x="1078.7" y="168.2" fill="#FF63CE" width="176.3" height="115.1"/>
			<g id="play_button">
				<circle fill="#FCD529" cx="1167.4" cy="217.2" r="29.2"/>
				<polygon fill="#FEFEFE" points="1184.9,217.2 1159.1,235.1 1159.1,199.3 				"/>
			</g>
			<g id="slider_7_">
				<rect x="1078.7" y="260.9" fill="#43459C" width="176.3" height="22.4"/>
				<rect x="1083" y="269.8" fill="#585AC7" width="106.5" height="4.4"/>
				<rect x="1183.6" y="269.8" fill="#E5E5E5" width="66.7" height="4.4"/>
				<circle id="button_6_" fill="#36D0FF" cx="1182.5" cy="272" r="5.4"/>
			</g>
		</g>
		<g id="text_26_">
			<g>
				<rect x="1078.5" y="298.2" fill="#BED3FC" width="101.7" height="5.3"/>
				<rect x="1078.5" y="310.9" fill="#BED3FC" width="176.3" height="5.3"/>
				<rect x="1078.5" y="323.7" fill="#BED3FC" width="176.3" height="5.3"/>
			</g>
		</g>
	</g>
	<g id="title_2_">
		<path fill="#FFFFFF" d="M1057,415.9l-6.3-16h3.9l4.4,12.1l4.4-12.1h3.7l-6.4,16H1057z"/>
		<path fill="#FFFFFF" d="M1069.5,415.9v-16h3.6v16H1069.5z"/>
		<path fill="#FFFFFF" d="M1084,399.9c5,0,8.4,3.3,8.4,8c0,4.7-3.5,8-8.6,8h-6.7v-16H1084z M1080.8,412.9h3.3c2.7,0,4.6-2,4.6-4.9
			c0-3-2.1-5-4.8-5h-3.1V412.9z"/>
		<path fill="#FFFFFF" d="M1099,402.9v3.5h7.7v3h-7.7v3.6h8.8v3h-12.5v-16h12.2v3H1099z"/>
		<path fill="#FFFFFF" d="M1127.3,407.9c0,4.6-3.7,8.2-8.6,8.2s-8.6-3.5-8.6-8.2c0-4.7,3.7-8.1,8.6-8.1S1127.3,403.2,1127.3,407.9z
			 M1113.8,407.9c0,2.8,2.3,5,4.9,5c2.7,0,4.9-2.2,4.9-5c0-2.8-2.2-5-4.9-5C1116.1,402.9,1113.8,405.1,1113.8,407.9z"/>
		<path fill="#FFFFFF" d="M1150.5,415.9v-10.8l-4.3,9.2h-2.4l-4.3-9.2v10.8h-3.3v-16h4.1l4.7,9.8l4.6-9.8h4v16H1150.5z"/>
		<path fill="#FFFFFF" d="M1161.1,412.8l-1.3,3.1h-3.7l7-16h3.7l6.8,16h-3.9l-1.3-3.1H1161.1z M1164.8,403.7l-2.5,6.2h5.1
			L1164.8,403.7z"/>
		<path fill="#FFFFFF" d="M1183.2,411.3h-0.3h-3.3v4.6h-3.6v-16h7c4.2,0,6.6,2,6.6,5.6c0,2.5-1.1,4.3-3,5.2l3.4,5.3h-4.1
			L1183.2,411.3z M1182.9,408.3c2,0,3.1-0.9,3.1-2.7c0-1.8-1.1-2.7-3.1-2.7h-3.3v5.4H1182.9z"/>
		<path fill="#FFFFFF" d="M1199,409.4l-2.3,2.6v4h-3.6v-16h3.6v7.3l6.7-7.3h4.2l-6,6.7l6.4,9.3h-4.4L1199,409.4z"/>
		<path fill="#FFFFFF" d="M1214.1,402.9v3.5h7.7v3h-7.7v3.6h8.8v3h-12.5v-16h12.2v3H1214.1z"/>
		<path fill="#FFFFFF" d="M1233.3,402.9v13h-3.6v-13h-4.9v-3.1h13.4v3.1H1233.3z"/>
		<path fill="#FFFFFF" d="M1240.7,415.9v-16h3.6v16H1240.7z"/>
		<path fill="#FFFFFF" d="M1259.7,415.9l-7.8-10.3v10.3h-3.5v-16h3.3l7.8,10.3v-10.3h3.4v16H1259.7z"/>
		<path fill="#FFFFFF" d="M1281,407.8v6.2c-1.7,1.2-4.3,2.1-6.5,2.1c-4.9,0-8.5-3.5-8.5-8.2c0-4.6,3.8-8.1,8.7-8.1
			c2.4,0,4.8,0.9,6.4,2.3l-2,2.6c-1.2-1.1-2.8-1.8-4.4-1.8c-2.8,0-5,2.2-5,5c0,2.8,2.2,5,5.1,5c1,0,2.1-0.3,3.1-0.9v-4.2H1281z"/>
	</g>
</g>
<g id="marketing_blog">
	<rect id="background_1_" x="466.7" fill="#FF9C00" width="466.7" height="490"/>
	<g id="marketing_blog_1_">
		<g id="browser_53_">
			
				<rect id="background_58_" x="572.7" y="92.3" fill-rule="evenodd" clip-rule="evenodd" fill="#FFFFFF" width="254.5" height="254.5"/>
			<rect id="bar_54_" x="572.7" y="92.3" fill-rule="evenodd" clip-rule="evenodd" fill="#43459C" width="254.5" height="53"/>
			<g id="field_58_">
				<rect x="599.2" y="113.5" fill-rule="evenodd" clip-rule="evenodd" fill="#FFFFFF" width="25.2" height="10.6"/>
				<rect x="641.4" y="113.5" fill-rule="evenodd" clip-rule="evenodd" fill="#FFFFFF" width="159.3" height="10.6"/>
			</g>
		</g>
		<path id="sidebar_1_" fill="#36D0FF" d="M636.6,282.9h-37.4v45.6h37.4V282.9z"/>
		<path id="sidebar_10_" fill="#FF63CE" d="M636.6,229.5h-37.4v45.6h37.4V229.5z"/>
		<path id="header_10_" fill="#FCD529" d="M800.8,165.7v46.5H599.2v-46.5H800.8z"/>
		<g id="text_1_">
			<g>
				<rect x="645.6" y="229.5" fill="#BED3FC" width="155.2" height="5.3"/>
				<rect x="645.6" y="323.7" fill="#BED3FC" width="155.2" height="5.3"/>
				<rect x="645.6" y="296.8" fill="#BED3FC" width="155.2" height="5.3"/>
				<rect x="645.6" y="310.2" fill="#BED3FC" width="155.2" height="5.3"/>
				<rect x="645.6" y="269.8" fill="#BED3FC" width="155.2" height="5.3"/>
				<rect x="645.6" y="283.3" fill="#BED3FC" width="155.2" height="5.3"/>
				<rect x="645.6" y="242.9" fill="#BED3FC" width="155.2" height="5.3"/>
				<rect x="645.6" y="256.4" fill="#BED3FC" width="155.2" height="5.3"/>
			</g>
		</g>
		<g id="blog">
			<path fill="#585AC7" d="M654.9,174.9c6.5,0,10.6,2.7,10.6,6.8c0,2.6-1.8,4.9-4.5,5.7c3.2,0.7,5.3,3.4,5.3,6.8
				c0,4.6-4.2,7.5-10.8,7.5h-14.2v-26.8H654.9z M650.2,185.2h4.2c1.2,0,2-0.8,2-1.9c0-1.1-0.8-1.9-2-1.9h-4.2V185.2z M650.2,195.2
				h4.2c1.6,0,2.7-0.8,2.7-2.1c0-1.2-1.1-1.9-2.7-1.9h-4.2V195.2z"/>
			<path fill="#585AC7" d="M692.8,194.3v7.4h-20v-26.8h8.9v19.4H692.8z"/>
			<path fill="#585AC7" d="M727,188.3c0,7.9-6.2,13.8-14.7,13.8s-14.7-5.8-14.7-13.8c0-7.9,6.2-13.6,14.7-13.6S727,180.4,727,188.3z
				 M706.7,188.3c0,3.7,2.7,6.4,5.7,6.4c3.1,0,5.5-2.7,5.5-6.4s-2.4-6.3-5.5-6.3C709.3,182,706.7,184.7,706.7,188.3z"/>
			<path fill="#585AC7" d="M758.2,187.6v11c-3,2-7.9,3.4-11.7,3.4c-8.4,0-14.5-5.8-14.5-13.7c0-7.9,6.3-13.7,15.1-13.7
				c4.2,0,8.7,1.6,11.6,4.1l-5,6.1c-1.8-1.7-4.4-2.8-6.6-2.8c-3.4,0-6,2.7-6,6.3c0,3.7,2.6,6.4,6,6.4c0.9,0,2.2-0.3,3.5-0.9v-6.2
				H758.2z"/>
		</g>
	</g>
	<g id="title_1_">
		<g>
			<path fill="#FFFFFF" d="M609.5,415.9v-10.8l-4.3,9.2h-2.4l-4.3-9.2v10.8h-3.3v-16h4.1l4.7,9.8l4.6-9.8h4v16H609.5z"/>
			<path fill="#FFFFFF" d="M619.5,412.8l-1.3,3.1h-3.7l7-16h3.7l6.8,16h-3.9l-1.3-3.1H619.5z M623.2,403.7l-2.5,6.2h5.1L623.2,403.7
				z"/>
			<path fill="#FFFFFF" d="M641,411.3h-0.3h-3.3v4.6h-3.6v-16h7c4.2,0,6.6,2,6.6,5.6c0,2.5-1.1,4.3-3,5.2l3.4,5.3h-4.1L641,411.3z
				 M640.7,408.3c2,0,3.1-0.9,3.1-2.7c0-1.8-1.1-2.7-3.1-2.7h-3.3v5.4H640.7z"/>
			<path fill="#FFFFFF" d="M656.2,409.4l-2.3,2.6v4h-3.6v-16h3.6v7.3l6.7-7.3h4.2l-6,6.7l6.4,9.3h-4.4L656.2,409.4z"/>
			<path fill="#FFFFFF" d="M670.8,402.9v3.5h7.7v3h-7.7v3.6h8.8v3h-12.5v-16h12.2v3H670.8z"/>
			<path fill="#FFFFFF" d="M689.4,402.9v13h-3.6v-13h-4.9v-3.1h13.4v3.1H689.4z"/>
			<path fill="#FFFFFF" d="M696.3,415.9v-16h3.6v16H696.3z"/>
			<path fill="#FFFFFF" d="M714.7,415.9l-7.8-10.3v10.3h-3.5v-16h3.3l7.8,10.3v-10.3h3.4v16H714.7z"/>
			<path fill="#FFFFFF" d="M735.4,407.8v6.2c-1.7,1.2-4.3,2.1-6.5,2.1c-4.9,0-8.5-3.5-8.5-8.2c0-4.6,3.8-8.1,8.7-8.1
				c2.4,0,4.8,0.9,6.4,2.3l-2,2.6c-1.2-1.1-2.8-1.8-4.4-1.8c-2.8,0-5,2.2-5,5c0,2.8,2.2,5,5.1,5c1,0,2.1-0.3,3.1-0.9v-4.2H735.4z"/>
			<path fill="#FFFFFF" d="M751.5,399.9c3.5,0,5.7,1.5,5.7,4c0,1.7-1.1,3.1-2.8,3.5c2.1,0.4,3.3,1.9,3.3,4.1c0,2.7-2.3,4.4-6,4.4
				h-7.6v-16H751.5z M747.7,406.3h3.6c1.4,0,2.2-0.7,2.2-1.8c0-1.1-0.8-1.7-2.2-1.7h-3.6V406.3z M747.7,413h3.6
				c1.7,0,2.7-0.7,2.7-1.9c0-1.2-1-1.9-2.7-1.9h-3.6V413z"/>
			<path fill="#FFFFFF" d="M770.9,412.7v3.2h-10.5v-16h3.6v12.9H770.9z"/>
			<path fill="#FFFFFF" d="M789.1,407.9c0,4.6-3.7,8.2-8.6,8.2c-4.9,0-8.6-3.5-8.6-8.2c0-4.7,3.7-8.1,8.6-8.1
				C785.4,399.8,789.1,403.2,789.1,407.9z M775.6,407.9c0,2.8,2.3,5,4.9,5c2.7,0,4.9-2.2,4.9-5c0-2.8-2.2-5-4.9-5
				C777.8,402.9,775.6,405.1,775.6,407.9z"/>
			<path fill="#FFFFFF" d="M805,407.8v6.2c-1.7,1.2-4.3,2.1-6.5,2.1c-4.9,0-8.5-3.5-8.5-8.2c0-4.6,3.8-8.1,8.7-8.1
				c2.4,0,4.8,0.9,6.4,2.3l-2,2.6c-1.2-1.1-2.8-1.8-4.4-1.8c-2.8,0-5,2.2-5,5c0,2.8,2.2,5,5.1,5c1,0,2.1-0.3,3.1-0.9v-4.2H805z"/>
		</g>
	</g>
</g>
<g id="advertising">
	<rect id="background" fill="#FF63CE" width="466.7" height="490"/>
	<g id="megaphone">
		<g id="megaphone-2">
			<path fill="#FCD529" d="M235.3,257.8h-21.2v-38.9h21.2L241,251c0.7,3-1.1,6-4.1,6.7C236.4,257.8,235.8,257.9,235.3,257.8z"/>
			<path fill="#585AC7" d="M188.9,346.8h31.2c1.4,0,2.5-1.1,2.5-2.6V218.9h-58.8l22.5,125.8C186.6,345.9,187.7,346.8,188.9,346.8z"
				/>
			<path fill="#5990F7" d="M222.7,274.9h-19.4c-1.6,0-2.8,2-2.9,4.5c-0.1,2.5,1.3,4.5,2.9,4.5h19.4V274.9z"/>
			<path fill="#5990F7" d="M222.7,293.5h-19.4c-1.6,0-2.9,2-2.9,4.5c0,2.5,1.3,4.5,2.8,4.5h19.4L222.7,293.5z"/>
			<path fill="#5990F7" d="M222.7,312.2h-19.4c-1.6,0-2.9,2-2.9,4.5c0,2.5,1.3,4.4,2.9,4.5h19.4V312.2z"/>
			<path fill="#36D0FF" d="M340.1,92.3c0,24.3-55.1,43.9-120,43.9v7.6v88.4c64.9,0,120,19.7,120,43.9h15.4V99.9v-7.6H340.1z"/>
			<path fill="#82E1FF" d="M355.5,97.4v7.6h-15.4c0,24.3-55.1,43.9-120,43.9v-7.6c64.8,0,120-19.7,120-43.9H355.5z"/>
			<rect x="340.1" y="92.3" fill="#43459C" width="15.4" height="183.4"/>
			<ellipse fill="#36D0FF" cx="151.7" cy="184" rx="40.5" ry="40.7"/>
			<path fill="#43459C" d="M151.7,228.7c0,5.3,4.3,9.6,9.6,9.6h58.9c7,0,12.7-5.7,12.7-12.7v-83.1c0-7-5.7-12.7-12.7-12.7h-58.9
				c-5.3,0-9.5,4.3-9.5,9.6l0,0V228.7z"/>
		</g>
	</g>
	<g id="title">
		<path fill="#FFFFFF" d="M154.7,412.8l-1.3,3.1h-3.7l7-16h3.7l6.8,16h-3.9l-1.3-3.1H154.7z M158.4,403.7l-2.5,6.2h5.1L158.4,403.7z
			"/>
		<path fill="#FFFFFF" d="M176.3,399.9c5,0,8.4,3.3,8.4,8c0,4.7-3.5,8-8.6,8h-6.7v-16H176.3z M173.1,412.9h3.3c2.7,0,4.6-2,4.6-4.9
			c0-3-2.1-5-4.8-5h-3.1V412.9z"/>
		<path fill="#FFFFFF" d="M192,415.9l-6.3-16h3.9l4.4,12.1l4.4-12.1h3.7l-6.4,16H192z"/>
		<path fill="#FFFFFF" d="M208,402.9v3.5h7.7v3H208v3.6h8.8v3h-12.5v-16h12.2v3H208z"/>
		<path fill="#FFFFFF" d="M227.6,411.3h-0.3h-3.3v4.6h-3.6v-16h7c4.2,0,6.6,2,6.6,5.6c0,2.5-1.1,4.3-3,5.2l3.4,5.3h-4.1L227.6,411.3
			z M227.2,408.3c2,0,3.1-0.9,3.1-2.7c0-1.8-1.1-2.7-3.1-2.7h-3.3v5.4H227.2z"/>
		<path fill="#FFFFFF" d="M244.3,402.9v13h-3.6v-13h-4.9v-3.1h13.4v3.1H244.3z"/>
		<path fill="#FFFFFF" d="M251.8,415.9v-16h3.6v16H251.8z"/>
		<path fill="#FFFFFF" d="M271.5,401.5l-1.4,3c-1.7-1-3.7-1.6-5-1.6c-1.2,0-2,0.4-2,1.3c0,3,8.5,1.3,8.5,7.1c0,3.1-2.7,4.8-6.3,4.8
			c-2.6,0-5.3-1-7.1-2.5l1.4-3c1.6,1.5,4,2.4,5.7,2.4c1.5,0,2.4-0.5,2.4-1.5c0-3-8.5-1.3-8.5-6.9c0-2.9,2.5-4.7,6.2-4.7
			C267.6,399.7,269.9,400.4,271.5,401.5z"/>
		<path fill="#FFFFFF" d="M274.7,415.9v-16h3.6v16H274.7z"/>
		<path fill="#FFFFFF" d="M293.6,415.9l-7.8-10.3v10.3h-3.5v-16h3.3l7.8,10.3v-10.3h3.4v16H293.6z"/>
		<path fill="#FFFFFF" d="M314.9,407.8v6.2c-1.7,1.2-4.3,2.1-6.5,2.1c-4.9,0-8.5-3.5-8.5-8.2c0-4.6,3.8-8.1,8.7-8.1
			c2.4,0,4.8,0.9,6.4,2.3l-2,2.6c-1.2-1.1-2.8-1.8-4.4-1.8c-2.8,0-5,2.2-5,5c0,2.8,2.2,5,5.1,5c1,0,2.1-0.3,3.1-0.9v-4.2H314.9z"/>
	</g>
</g>
</svg>
